<svg width="32" height="32" viewBox="0 0 32 32" fill="none" xmlns="http://www.w3.org/2000/svg">
<path fill-rule="evenodd" clip-rule="evenodd" d="M5.33398 14C5.33398 12.8954 6.22942 12 7.33398 12H24.6673C25.7719 12 26.6673 12.8954 26.6673 14V24.6667C26.6673 27.244 24.578 29.3333 22.0007 29.3333H10.0007C7.42332 29.3333 5.33398 27.244 5.33398 24.6667V14ZM7.33398 13.3333C6.96579 13.3333 6.66732 13.6318 6.66732 14V24.6667C6.66732 26.5076 8.1597 28 10.0007 28H22.0007C23.8416 28 25.334 26.5076 25.334 24.6667V14C25.334 13.6318 25.0355 13.3333 24.6673 13.3333H7.33398Z" fill="white"/>
<path d="M21.8672 8.78634V11.893C21.8672 12.0981 21.7857 12.2948 21.6407 12.4398C21.4956 12.5849 21.2989 12.6663 21.0938 12.6663H10.7738C10.5687 12.6663 10.372 12.5849 10.227 12.4398C10.082 12.2948 10.0005 12.0981 10.0005 11.893V8.78634C9.99875 8.07083 10.1382 7.362 10.4108 6.70045C10.6834 6.0389 11.0838 5.43762 11.5891 4.93106C12.0944 4.42449 12.6947 4.02259 13.3556 3.74837C14.0165 3.47416 14.725 3.33301 15.4405 3.33301H16.4272C17.1427 3.33301 17.8512 3.47416 18.5121 3.74837C19.1729 4.02259 19.7732 4.42449 20.2786 4.93106C20.7839 5.43762 21.1843 6.0389 21.4569 6.70045C21.7295 7.362 21.8689 8.07083 21.8672 8.78634V8.78634Z" stroke="white" stroke-linecap="round" stroke-linejoin="round"/>
<path fill-rule="evenodd" clip-rule="evenodd" d="M16.0007 19.9336C16.3688 19.9336 16.6673 20.2321 16.6673 20.6003V24.6003C16.6673 24.9685 16.3688 25.2669 16.0007 25.2669C15.6325 25.2669 15.334 24.9685 15.334 24.6003V20.6003C15.334 20.2321 15.6325 19.9336 16.0007 19.9336Z" fill="white"/>
</svg>
