<svg width="32" height="32" viewBox="0 0 32 32" fill="none" xmlns="http://www.w3.org/2000/svg">
<path fill-rule="evenodd" clip-rule="evenodd" d="M2.66602 16.0003C2.66602 8.63653 8.63555 2.66699 15.9993 2.66699C23.3631 2.66699 29.3327 8.63653 29.3327 16.0003C29.3327 23.3641 23.3631 29.3337 15.9993 29.3337C8.63555 29.3337 2.66602 23.3641 2.66602 16.0003ZM15.9993 4.00033C9.37193 4.00033 3.99935 9.37291 3.99935 16.0003C3.99935 18.9847 5.08881 21.7147 6.89173 23.8142C7.31017 22.209 8.18375 20.7466 9.42191 19.6116C10.4205 18.6962 11.6106 18.0356 12.8918 17.6686C11.5439 16.7007 10.666 15.1197 10.666 13.3337C10.666 10.3881 13.0538 8.00033 15.9993 8.00033C18.9449 8.00033 21.3327 10.3881 21.3327 13.3337C21.3327 15.1265 20.4481 16.7126 19.0916 17.6796C20.3583 18.0487 21.5348 18.7053 22.5234 19.6116C23.7738 20.7578 24.6524 22.2379 25.0659 23.8618C26.8933 21.756 27.9993 19.0073 27.9993 16.0003C27.9993 9.37291 22.6268 4.00033 15.9993 4.00033ZM15.9804 18.667L15.9993 18.667L16.0183 18.667H16.6393L16.6417 18.667C18.4852 18.6605 20.2635 19.3487 21.6225 20.5944C22.886 21.7527 23.7009 23.3139 23.9325 25.0041C21.8177 26.8689 19.0406 28.0003 15.9993 28.0003C12.9353 28.0003 10.1394 26.8519 8.01871 24.962C8.25807 23.288 9.06983 21.7431 10.3229 20.5944C11.6818 19.3487 13.4602 18.6605 15.3037 18.667L15.306 18.667H15.9804ZM16.0158 17.3336C18.2174 17.3248 19.9993 15.5373 19.9993 13.3337C19.9993 11.1245 18.2085 9.33366 15.9993 9.33366C13.7902 9.33366 11.9993 11.1245 11.9993 13.3337C11.9993 15.5373 13.7813 17.3248 15.9829 17.3336H16.0158Z" fill="white"/>
</svg>
