<svg width="26" height="26" viewBox="0 0 26 26" fill="none" xmlns="http://www.w3.org/2000/svg">
<path fill-rule="evenodd" clip-rule="evenodd" d="M18.8086 2.44035C19.2408 2.26053 19.7041 2.16797 20.172 2.16797C20.6399 2.16797 21.1032 2.26053 21.5353 2.44035C21.9672 2.62008 22.3595 2.88343 22.6895 3.21531L22.7858 3.3118C23.1172 3.64238 23.3806 4.03569 23.5601 4.46828C23.7396 4.90107 23.832 5.36512 23.832 5.83378C23.832 6.30244 23.7396 6.76649 23.5601 7.19928C23.3805 7.63207 23.1174 8.02509 22.7858 8.35576L21.9275 9.21187L22.0933 9.37802C22.3049 9.58988 22.3049 9.93339 22.0933 10.1453C21.8818 10.3571 21.5388 10.3571 21.3273 10.1453L21.1598 9.97748L7.4242 23.6765C7.32268 23.7778 7.18525 23.8346 7.04199 23.8346H2.70866C2.4095 23.8346 2.16699 23.5917 2.16699 23.2921V18.9519C2.16699 18.8081 2.22406 18.6701 2.32564 18.5683L16.0314 4.84097L15.8673 4.67664C15.6558 4.46477 15.6558 4.12127 15.8673 3.9094C16.0788 3.69753 16.4218 3.69753 16.6333 3.9094L16.7974 4.07373L17.654 3.2158C17.984 2.88393 18.3768 2.62008 18.8086 2.44035ZM22.0215 7.58688L21.1614 8.44463L19.4335 6.71394C19.416 6.68925 19.3962 6.6657 19.3741 6.64358C19.3521 6.62157 19.3287 6.60184 19.3041 6.58441L17.5634 4.84097L18.4208 3.98221L18.4217 3.98138C18.6512 3.75053 18.9239 3.56734 19.2243 3.44235C19.5247 3.31736 19.8467 3.25301 20.172 3.25301C20.4973 3.25301 20.8193 3.31736 21.1197 3.44235C21.4201 3.56734 21.6928 3.75053 21.9223 3.98138L21.9231 3.98221L22.0206 4.07987L22.0215 4.0807C22.252 4.31056 22.4349 4.58375 22.5597 4.88459C22.6845 5.18543 22.7487 5.508 22.7487 5.83378C22.7487 6.15956 22.6845 6.48213 22.5597 6.78297C22.4349 7.08381 22.252 7.35702 22.0215 7.58688ZM16.7974 5.60821L18.2199 7.03294L4.79935 20.4849L3.53575 19.2193C3.47706 19.1606 3.40825 19.1181 3.33494 19.0919L16.7974 5.60821ZM20.3938 9.21024L18.9859 7.80018L5.56538 21.2522L6.80741 22.4962C6.85386 22.5427 6.89012 22.5956 6.91617 22.652L20.3938 9.21024ZM5.52838 22.7496L3.25033 20.4679V22.7496H5.52838Z" fill="#0062E1"/>
</svg>
