<svg width="69" height="53" viewBox="0 0 69 53" fill="none" xmlns="http://www.w3.org/2000/svg">
<path d="M6.96737 9.21897L17.5776 7.38281V41.2353L13.1461 42.204C9.82949 42.929 6.57246 40.7602 5.96245 37.4205L2.08815 16.2092C1.48883 12.9279 3.6807 9.78775 6.96737 9.21897Z" fill="white" stroke="#0062E1" stroke-width="2"/>
<path d="M62.4477 9.21897L51.8375 7.38281V41.2353L56.2689 42.204C59.5855 42.929 62.8426 40.7602 63.4526 37.4205L67.3269 16.2092C67.9262 12.9279 65.7343 9.78775 62.4477 9.21897Z" fill="white" stroke="#0062E1" stroke-width="2"/>
<g filter="url(#filter0_dd_2231_9213)">
<rect x="16.4727" y="0.5" width="36.4706" height="44.7541" rx="6" fill="white"/>
<rect x="17.4727" y="1.5" width="34.4706" height="42.7541" rx="5" stroke="#0062E1" stroke-width="2"/>
</g>
<path d="M46.9433 44.2546H22.4727C19.7112 44.2546 17.4727 42.016 17.4727 39.2546L17.4727 35.7827L29.3828 22.6773L38.4634 33.5274C39.2661 34.4866 40.7424 34.4819 41.539 33.5177L46.503 27.5093L51.9433 33.5876L51.9433 39.2546C51.9433 42.016 49.7047 44.2546 46.9433 44.2546Z" fill="#EFF6FF" stroke="#0062E1" stroke-width="2"/>
<path d="M43.1008 14.8436C43.1008 17.1791 41.2868 19.0076 39.1276 19.0076C36.9683 19.0076 35.1543 17.1791 35.1543 14.8436C35.1543 12.5082 36.9683 10.6797 39.1276 10.6797C41.2868 10.6797 43.1008 12.5082 43.1008 14.8436Z" fill="#EFF6FF" stroke="#0062E1" stroke-width="2"/>
<defs>
<filter id="filter0_dd_2231_9213" x="13.4727" y="0.5" width="42.4707" height="51.7539" filterUnits="userSpaceOnUse" color-interpolation-filters="sRGB">
<feFlood flood-opacity="0" result="BackgroundImageFix"/>
<feColorMatrix in="SourceAlpha" type="matrix" values="0 0 0 0 0 0 0 0 0 0 0 0 0 0 0 0 0 0 127 0" result="hardAlpha"/>
<feOffset dy="2"/>
<feGaussianBlur stdDeviation="1"/>
<feComposite in2="hardAlpha" operator="out"/>
<feColorMatrix type="matrix" values="0 0 0 0 0 0 0 0 0 0 0 0 0 0 0 0 0 0 0.06 0"/>
<feBlend mode="normal" in2="BackgroundImageFix" result="effect1_dropShadow_2231_9213"/>
<feColorMatrix in="SourceAlpha" type="matrix" values="0 0 0 0 0 0 0 0 0 0 0 0 0 0 0 0 0 0 127 0" result="hardAlpha"/>
<feOffset dy="4"/>
<feGaussianBlur stdDeviation="1.5"/>
<feComposite in2="hardAlpha" operator="out"/>
<feColorMatrix type="matrix" values="0 0 0 0 0 0 0 0 0 0 0 0 0 0 0 0 0 0 0.07 0"/>
<feBlend mode="normal" in2="effect1_dropShadow_2231_9213" result="effect2_dropShadow_2231_9213"/>
<feBlend mode="normal" in="SourceGraphic" in2="effect2_dropShadow_2231_9213" result="shape"/>
</filter>
</defs>
</svg>
