<svg width="44" height="45" viewBox="0 0 44 45" fill="none" xmlns="http://www.w3.org/2000/svg">
<rect y="0.5" width="44" height="44" rx="8" fill="#FFF6DE"/>
<path d="M25.6004 14.5029L16.0981 19.3679L13.6702 18.1734C13.1187 17.902 13.1182 17.1159 13.6693 16.8438L21.6559 12.9001C21.8653 12.7937 22.1166 12.7937 22.3364 12.9001L25.6004 14.5029Z" fill="#F4B207"/>
<path d="M30.3325 16.848C30.8835 17.1192 30.8845 17.9044 30.3342 18.1771L22.0101 22.3008L18.3892 20.5166L17.8657 20.2505L27.3785 15.3863L27.902 15.6515L30.3325 16.848Z" fill="#F4B207"/>
<path d="M21.4619 23.3656L21.4539 31.1201C21.453 31.9147 20.6097 32.4253 19.9053 32.0577L12.7249 28.3105C12.4782 28.1806 12.3203 27.92 12.3203 27.6396V20.5534C12.3203 19.7691 13.1434 19.257 13.847 19.6037L16.0187 20.6736V23.877C16.0187 24.2873 16.3542 24.6277 16.7587 24.6277C17.1633 24.6277 17.4987 24.2873 17.4987 23.877V21.4144L17.9921 21.6545L21.4619 23.3656Z" fill="#F4B207"/>
<path d="M31.6717 20.5608C31.6708 19.7766 30.8474 19.2654 30.1441 19.6126L22.5677 23.3536L22.5597 31.1036C22.5588 31.8993 23.4032 32.4115 24.1085 32.0432L31.1103 28.387C31.4602 28.2043 31.6794 27.8421 31.679 27.4474L31.6717 20.5608Z" fill="#F4B207"/>
</svg>
