<svg width="45" height="44" viewBox="0 0 45 44" fill="none" xmlns="http://www.w3.org/2000/svg">
<rect x="0.5" width="44" height="44" rx="8" fill="#E8FFEE"/>
<path d="M18.1308 24.0758L18.1324 24.0626C18.2744 23.2652 18.6156 22.5168 19.1245 21.8868C19.3939 21.5114 19.7464 21.2033 20.1546 20.9867C20.5627 20.7701 21.0153 20.6507 21.4772 20.6379C22.2622 20.6122 23.0303 20.8687 23.6423 21.3609C24.4744 22.1284 25.0726 23.1156 25.3677 24.2084C25.4315 24.3999 25.5686 24.5582 25.7491 24.6486C25.9296 24.7389 26.1385 24.7539 26.33 24.6902C26.5215 24.6264 26.6798 24.4892 26.7702 24.3088C26.8605 24.1283 26.8755 23.9194 26.8117 23.7279C26.4274 22.3615 25.6622 21.1327 24.6056 20.1849C23.7218 19.4706 22.6133 19.0928 21.4772 19.1187C20.7872 19.1311 20.1093 19.3014 19.4954 19.6167C18.8815 19.932 18.3481 20.3838 17.9361 20.9374C17.2528 21.7843 16.8003 22.7937 16.6229 23.8673C16.4617 25.0944 16.5821 26.342 16.9748 27.5156C17.3675 28.6892 18.0223 29.758 18.8895 30.641C18.9601 30.7116 19.0439 30.7677 19.1361 30.806C19.2283 30.8442 19.3272 30.864 19.427 30.864C19.5269 30.8641 19.6258 30.8445 19.718 30.8063C19.8103 30.7682 19.8942 30.7122 19.9648 30.6417C20.0355 30.5711 20.0915 30.4874 20.1298 30.3951C20.1681 30.3029 20.1878 30.2041 20.1879 30.1042C20.1879 30.0044 20.1683 29.9055 20.1302 29.8132C20.092 29.7209 20.0361 29.6371 19.9655 29.5664C19.2647 28.8493 18.7355 27.9828 18.4177 27.0318C18.0999 26.0808 18.0018 25.0702 18.1308 24.0758ZM19.8621 30.5373C19.805 30.5943 19.7372 30.6396 19.6626 30.6704C19.588 30.7012 19.508 30.717 19.4272 30.7169C19.5487 30.7171 19.6674 30.6813 19.7685 30.6139C19.8695 30.5466 19.9483 30.4508 19.9948 30.3387C20.0414 30.2265 20.0536 30.1031 20.03 29.984C20.0063 29.8649 19.9479 29.7555 19.862 29.6696C19.9191 29.7265 19.9644 29.794 19.9954 29.8685C20.0263 29.9429 20.0422 30.0228 20.0422 30.1034C20.0422 30.184 20.0257 30.2642 19.9948 30.3387C19.9639 30.4131 19.9192 30.4803 19.8621 30.5373Z" fill="#61CD82"/>
<path d="M17.2866 15.3979C18.721 14.5538 20.356 14.1114 22.0203 14.117C23.6846 14.1226 25.3166 14.5761 26.7452 15.4299C26.8324 15.4784 26.9283 15.5093 27.0275 15.5207C27.1266 15.5322 27.227 15.524 27.323 15.4967C27.4189 15.4693 27.5086 15.4233 27.5868 15.3614C27.665 15.2994 27.7302 15.2226 27.7787 15.1354C27.8273 15.0482 27.8581 14.9523 27.8696 14.8531C27.8811 14.754 27.8729 14.6536 27.8455 14.5576C27.8182 14.4617 27.7722 14.372 27.7102 14.2938C27.6482 14.2156 27.5714 14.1504 27.4842 14.1019C25.8117 13.1118 23.9027 12.5921 21.959 12.5977C20.0154 12.6033 18.1095 13.134 16.4426 14.1337C16.275 14.2456 16.1587 14.4195 16.1193 14.6172C16.0799 14.8149 16.1206 15.0201 16.2325 15.1878C16.3445 15.3554 16.5184 15.4717 16.7161 15.5111C16.9137 15.5505 17.119 15.5098 17.2866 15.3979Z" fill="#61CD82"/>
<path d="M30.3596 19.5805C28.6409 16.1084 24.8695 15.2101 23.0904 15.033C21.1594 14.752 19.1886 15.0535 17.43 15.8991C16.3169 16.4975 15.3751 17.3703 14.6937 18.4348C14.5852 18.6027 14.5472 18.8067 14.5879 19.0025C14.6287 19.1983 14.7449 19.3702 14.9114 19.4809C15.0779 19.5917 15.2814 19.6324 15.4777 19.5942C15.674 19.5561 15.8474 19.4421 15.9603 19.2771C16.5009 18.4233 17.2515 17.7226 18.1404 17.2419C19.6349 16.5371 21.3056 16.2941 22.939 16.5439C24.5762 16.7073 27.6386 17.513 28.9949 20.2531C29.0842 20.434 29.2416 20.5721 29.4327 20.637C29.6237 20.7019 29.8327 20.6882 30.0137 20.599C30.1946 20.5097 30.3328 20.3523 30.3976 20.1612C30.4625 19.9702 30.4488 19.7615 30.3596 19.5805ZM29.9495 20.467C29.8758 20.5035 29.7956 20.5248 29.7135 20.5295C29.8146 20.5235 29.9126 20.4927 29.9989 20.4396C30.0852 20.3866 30.157 20.313 30.208 20.2255C30.259 20.138 30.2876 20.0392 30.2912 19.938C30.2948 19.8368 30.2733 19.7362 30.2286 19.6453C30.2643 19.7176 30.2855 19.7962 30.2909 19.8766C30.2962 19.9571 30.2855 20.0378 30.2596 20.1141C30.2337 20.1904 30.1929 20.2609 30.1397 20.3215C30.0865 20.382 30.0219 20.4315 29.9495 20.467Z" fill="#61CD82"/>
<path d="M28.7754 21.6411C28.169 20.2075 27.1299 18.9993 25.8033 18.1851C24.4766 17.371 22.9288 16.9917 21.376 17.1002C19.7668 17.1127 18.2213 17.7312 17.0477 18.8324C16.1811 19.6211 15.504 20.5955 15.0673 21.6829L15.0575 21.7094C14.3922 23.7051 14.3977 25.8637 15.0732 27.856C15.1481 28.0434 15.2944 28.1934 15.4799 28.2729C15.6653 28.3525 15.8748 28.3551 16.0622 28.2802C16.2496 28.2053 16.3996 28.059 16.4792 27.8736C16.5587 27.6881 16.5614 27.4786 16.4865 27.2912C15.9477 25.6375 15.9515 23.855 16.4973 22.2036C16.8502 21.3465 17.3887 20.5783 18.074 19.9542C18.9773 19.0989 20.1735 18.6213 21.4175 18.6193C21.4456 18.6193 21.4736 18.6179 21.5015 18.6149C22.7333 18.5327 23.9601 18.8361 25.0116 19.4829C26.0632 20.1298 26.8872 21.088 27.3693 22.2245C27.5586 22.8162 27.6541 23.4339 27.6523 24.0552C27.6808 24.3046 27.6498 24.5572 27.5618 24.7923C27.4737 25.0274 27.3312 25.2383 27.1459 25.4076C26.9004 25.5842 26.6215 25.7089 26.3263 25.7744C26.2007 25.7982 26.0713 25.7929 25.9481 25.759C25.7936 25.7093 25.6543 25.6211 25.5434 25.5026C25.19 25.0992 24.8931 24.6496 24.6611 24.1662C24.5902 24.0247 24.5307 23.8947 24.4644 23.7498C24.409 23.6286 24.349 23.4974 24.2744 23.3426C24.1192 23.0076 23.9337 22.6875 23.7203 22.3863C23.4664 22.008 23.121 21.7001 22.7162 21.4909C22.3115 21.2818 21.8604 21.1784 21.405 21.1901C21.0653 21.1912 20.7305 21.2709 20.4268 21.4229C20.1231 21.575 19.8587 21.7953 19.6543 22.0665C19.2988 22.5588 19.067 23.1295 18.9785 23.7302C18.7972 24.7606 18.8622 25.8192 19.1682 26.8196C19.5005 27.7935 20.0145 28.6956 20.6829 29.478C21.6517 30.5239 22.9545 31.1998 24.3675 31.3895C24.4659 31.4059 24.5665 31.4028 24.6637 31.3803C24.7609 31.3578 24.8527 31.3164 24.9339 31.2585C25.0151 31.2005 25.084 31.1271 25.1368 31.0425C25.1897 30.9579 25.2253 30.8637 25.2417 30.7653C25.2581 30.6669 25.255 30.5663 25.2325 30.4691C25.2101 30.3719 25.1687 30.2801 25.1107 30.1989C25.0527 30.1177 24.9793 30.0488 24.8947 29.9959C24.8101 29.9431 24.7159 29.9075 24.6175 29.8911C23.5437 29.7572 22.5509 29.2506 21.8124 28.4596C21.2719 27.8171 20.8577 27.0782 20.5917 26.2819C20.4937 25.9736 20.436 25.654 20.42 25.331C20.3853 24.8847 20.4046 24.4358 20.4776 23.9942C20.5244 23.6372 20.6542 23.2961 20.8565 22.9983C20.921 22.9068 21.0071 22.8325 21.1071 22.7821C21.2071 22.7316 21.3179 22.7066 21.4299 22.7091C21.6423 22.6994 21.8532 22.7489 22.0392 22.8521C22.2185 22.9622 22.3724 23.109 22.491 23.2828C22.6494 23.5091 22.7869 23.7493 22.9019 24.0004C22.9498 24.0999 23.0047 24.2188 23.0618 24.343L23.0626 24.3448C23.1421 24.5172 23.226 24.6997 23.2992 24.8457C23.6029 25.4761 23.9962 26.0592 24.4669 26.5769C24.7336 26.858 25.0659 27.0687 25.4339 27.1901C25.8019 27.3115 26.1942 27.3399 26.5759 27.2728C27.0837 27.1729 27.5652 26.9682 27.9895 26.6718C28.3817 26.3693 28.6945 25.9761 28.9008 25.5259C29.1072 25.0757 29.201 24.582 29.1741 24.0875C29.1798 23.2799 29.0543 22.4768 28.8025 21.7094C28.7942 21.6863 28.7854 21.6634 28.7754 21.6411Z" fill="#61CD82"/>
<path d="M26.6024 28.3212C25.6598 28.3501 24.7407 28.0237 24.0274 27.4069C23.314 26.7901 22.8584 25.9278 22.7508 24.991C22.7486 24.7906 22.6674 24.5992 22.5249 24.4583C22.3824 24.3175 22.1901 24.2385 21.9898 24.2385C21.7894 24.2385 21.5971 24.3175 21.4546 24.4583C21.3122 24.5992 21.231 24.7906 21.2287 24.991C21.2287 27.5123 23.6787 29.8403 26.6024 29.8403C26.7021 29.8403 26.8009 29.8207 26.893 29.7825C26.9852 29.7443 27.0689 29.6884 27.1394 29.6179C27.21 29.5473 27.2659 29.4636 27.3041 29.3715C27.3423 29.2793 27.3619 29.1805 27.3619 29.0808C27.3619 28.981 27.3423 28.8823 27.3041 28.7901C27.2659 28.698 27.21 28.6142 27.1394 28.5437C27.0689 28.4732 26.9852 28.4172 26.893 28.3791C26.8009 28.3409 26.7021 28.3212 26.6024 28.3212Z" fill="#61CD82"/>
</svg>
