<svg width="45" height="44" viewBox="0 0 45 44" fill="none" xmlns="http://www.w3.org/2000/svg">
<rect x="0.5" width="44" height="44" rx="8" fill="#FFF6DE"/>
<path d="M26.1004 14.0029L16.5981 18.8679L14.1702 17.6734C13.6187 17.402 13.6182 16.6159 14.1693 16.3438L22.1559 12.4001C22.3653 12.2937 22.6166 12.2937 22.8364 12.4001L26.1004 14.0029Z" fill="#F4B207"/>
<path d="M30.8325 16.348C31.3835 16.6192 31.3845 17.4044 30.8342 17.6771L22.5101 21.8008L18.8892 20.0166L18.3657 19.7505L27.8785 14.8863L28.402 15.1515L30.8325 16.348Z" fill="#F4B207"/>
<path d="M21.9619 22.8656L21.9539 30.6201C21.953 31.4147 21.1097 31.9253 20.4053 31.5577L13.2249 27.8105C12.9782 27.6806 12.8203 27.42 12.8203 27.1396V20.0534C12.8203 19.2691 13.6434 18.757 14.347 19.1037L16.5187 20.1736V23.377C16.5187 23.7873 16.8542 24.1277 17.2587 24.1277C17.6633 24.1277 17.9987 23.7873 17.9987 23.377V20.9144L18.4921 21.1545L21.9619 22.8656Z" fill="#F4B207"/>
<path d="M32.1717 20.0608C32.1708 19.2766 31.3474 18.7654 30.6441 19.1126L23.0677 22.8536L23.0597 30.6036C23.0588 31.3993 23.9032 31.9115 24.6085 31.5432L31.6103 27.887C31.9602 27.7043 32.1794 27.3421 32.179 26.9474L32.1717 20.0608Z" fill="#F4B207"/>
</svg>
