<svg width="45" height="44" viewBox="0 0 45 44" fill="none" xmlns="http://www.w3.org/2000/svg">
<rect x="0.5" width="44" height="44" rx="8" fill="#F3F4F6"/>
<path fill-rule="evenodd" clip-rule="evenodd" d="M13 22C13 16.7533 17.2533 12.5 22.5 12.5C27.7467 12.5 32 16.7533 32 22C32 27.2467 27.7467 31.5 22.5 31.5C17.2533 31.5 13 27.2467 13 22ZM23.2779 16.4168C23.2779 16.0026 22.9421 15.6668 22.5279 15.6668C22.1137 15.6668 21.7779 16.0026 21.7779 16.4168V17.0986H21.0695C20.3291 17.0986 19.6191 17.3927 19.0955 17.9163C18.572 18.4398 18.2779 19.1499 18.2779 19.8903C18.2779 20.6307 18.572 21.3408 19.0955 21.8643C19.6191 22.3878 20.3291 22.682 21.0695 22.682H23.9862C24.3288 22.682 24.6573 22.818 24.8996 23.0603C25.1418 23.3025 25.2779 23.6311 25.2779 23.9736C25.2779 24.3162 25.1418 24.6447 24.8996 24.887C24.6573 25.1292 24.3288 25.2653 23.9862 25.2653H19.6259C19.2117 25.2653 18.8759 25.6011 18.8759 26.0153C18.8759 26.4295 19.2117 26.7653 19.6259 26.7653H21.7779V27.5532C21.7779 27.9674 22.1137 28.3032 22.5279 28.3032C22.9421 28.3032 23.2779 27.9674 23.2779 27.5532V26.7653H23.9862C24.7266 26.7653 25.4367 26.4712 25.9602 25.9476C26.4838 25.4241 26.7779 24.714 26.7779 23.9736C26.7779 23.2332 26.4838 22.5232 25.9602 21.9996C25.4367 21.4761 24.7266 21.182 23.9862 21.182H21.0695C20.727 21.182 20.3984 21.0459 20.1562 20.8036C19.914 20.5614 19.7779 20.2329 19.7779 19.8903C19.7779 19.5477 19.914 19.2192 20.1562 18.9769C20.3984 18.7347 20.727 18.5986 21.0695 18.5986H25.0733C25.4875 18.5986 25.8233 18.2628 25.8233 17.8486C25.8233 17.4344 25.4875 17.0986 25.0733 17.0986H23.2779V16.4168Z" fill="#101E4A"/>
</svg>
