<svg width="45" height="44" viewBox="0 0 45 44" fill="none" xmlns="http://www.w3.org/2000/svg">
<rect x="0.5" width="44" height="44" rx="8" fill="#EFF3FF"/>
<path fill-rule="evenodd" clip-rule="evenodd" d="M30.9023 23.58C31.26 23.77 31.536 24.07 31.7301 24.37C32.1083 24.99 32.0776 25.75 31.7097 26.42L30.9943 27.62C30.6162 28.26 29.911 28.66 29.1855 28.66C28.8278 28.66 28.4292 28.56 28.1022 28.36C27.8365 28.19 27.5299 28.13 27.2029 28.13C26.1911 28.13 25.3429 28.96 25.3122 29.95C25.3122 31.1 24.372 32 23.1968 32H21.8069C20.6215 32 19.6813 31.1 19.6813 29.95C19.6608 28.96 18.8126 28.13 17.8009 28.13C17.4636 28.13 17.157 28.19 16.9015 28.36C16.5745 28.56 16.1657 28.66 15.8183 28.66C15.0824 28.66 14.3773 28.26 13.9992 27.62L13.294 26.42C12.9159 25.77 12.8955 24.99 13.2736 24.37C13.4371 24.07 13.7437 23.77 14.0911 23.58C14.3773 23.44 14.5612 23.21 14.735 22.94C15.246 22.08 14.9394 20.95 14.0707 20.44C13.059 19.87 12.7319 18.6 13.3145 17.61L13.9992 16.43C14.5919 15.44 15.8591 15.09 16.8811 15.67C17.7702 16.15 18.925 15.83 19.4462 14.98C19.6097 14.7 19.7017 14.4 19.6813 14.1C19.6608 13.71 19.7732 13.34 19.9674 13.04C20.3455 12.42 21.0302 12.02 21.7763 12H23.2172C23.9735 12 24.6582 12.42 25.0363 13.04C25.2203 13.34 25.3429 13.71 25.3122 14.1C25.2918 14.4 25.3838 14.7 25.5473 14.98C26.0685 15.83 27.2233 16.15 28.1226 15.67C29.1344 15.09 30.4118 15.44 30.9943 16.43L31.679 17.61C32.2718 18.6 31.9447 19.87 30.9228 20.44C30.0541 20.95 29.7475 22.08 30.2687 22.94C30.4322 23.21 30.6162 23.44 30.9023 23.58ZM19.6097 22.01C19.6097 23.58 20.9076 24.83 22.5121 24.83C24.1165 24.83 25.3838 23.58 25.3838 22.01C25.3838 20.44 24.1165 19.18 22.5121 19.18C20.9076 19.18 19.6097 20.44 19.6097 22.01Z" fill="#446FF2"/>
</svg>
